<?xml version="1.0" standalone="no"?>
<!DOCTYPE svg PUBLIC "-//W3C//DTD SVG 20010904//EN"
 "http://www.w3.org/TR/2001/REC-SVG-20010904/DTD/svg10.dtd">
<svg version="1.0" xmlns="http://www.w3.org/2000/svg"
 width="1837.000000pt" height="1837.000000pt" viewBox="0 0 1837.000000 1837.000000"
 preserveAspectRatio="xMidYMid meet">
<metadata>
Created by potrace 1.14, written by Peter Selinger 2001-2017
</metadata>
<g transform="translate(0.000000,1837.000000) scale(0.100000,-0.100000)"
fill="#000000" stroke="none">
<path d="M12610 18360 c0 -5 -9 -10 -20 -10 -11 0 -23 -7 -26 -15 -4 -9 -19
-15 -35 -15 -17 0 -32 -6 -35 -15 -4 -8 -13 -15 -20 -15 -8 0 -17 -6 -20 -14
-3 -8 -19 -19 -35 -25 -16 -5 -29 -14 -29 -20 0 -5 -20 -19 -45 -31 -25 -12
-45 -26 -45 -31 0 -5 -7 -9 -15 -9 -7 0 -18 -6 -22 -14 -8 -13 -78 -57 -122
-76 -14 -6 -34 -21 -45 -33 -12 -12 -34 -29 -49 -37 -16 -8 -39 -24 -52 -36
-13 -12 -38 -32 -57 -45 -42 -30 -71 -55 -118 -99 -56 -54 -133 -122 -174
-154 -20 -15 -36 -35 -36 -42 0 -8 -7 -17 -15 -20 -8 -4 -15 -10 -15 -15 0 -5
-26 -33 -57 -62 -31 -29 -64 -61 -72 -71 -9 -11 -32 -38 -52 -60 -20 -23 -39
-49 -42 -58 -4 -10 -11 -18 -17 -18 -5 0 -10 -6 -10 -14 0 -8 -7 -16 -15 -20
-8 -3 -15 -12 -15 -21 0 -8 -4 -15 -10 -15 -5 0 -16 -12 -24 -27 -8 -16 -26
-41 -40 -57 -14 -16 -26 -37 -26 -48 0 -10 -3 -18 -8 -18 -4 0 -18 -24 -32
-52 -13 -29 -30 -59 -37 -66 -7 -7 -13 -22 -13 -33 0 -10 -3 -19 -8 -19 -4 0
-18 -24 -31 -52 -12 -29 -29 -67 -37 -84 -9 -17 -16 -38 -18 -46 -1 -9 -7 -23
-14 -31 -7 -8 -15 -37 -19 -64 -3 -26 -9 -50 -13 -53 -5 -3 -11 -23 -14 -45
-4 -21 -11 -42 -17 -45 -5 -4 -12 -31 -16 -61 -3 -30 -9 -58 -13 -64 -5 -5
-11 -46 -15 -90 -4 -44 -12 -89 -19 -100 -6 -11 -13 -54 -17 -95 -3 -41 -11
-101 -18 -132 -11 -52 -10 -61 6 -83 10 -14 28 -25 42 -25 14 0 32 -7 41 -15
24 -22 175 -23 215 -1 18 10 54 16 91 16 40 0 66 5 73 14 7 8 34 14 68 15 32
0 63 7 72 15 9 7 42 16 74 18 33 3 62 9 65 15 4 6 28 13 55 17 26 4 47 11 47
17 0 5 15 9 33 9 18 0 42 7 53 15 10 8 28 15 39 15 11 0 31 6 45 13 14 7 57
24 95 37 39 13 75 30 81 37 6 7 23 13 38 13 15 0 29 7 32 15 4 8 14 15 24 15
10 0 25 7 34 15 8 8 24 15 36 15 11 0 23 7 26 15 4 8 14 15 24 15 10 0 25 7
34 15 8 8 21 15 30 15 8 0 21 6 28 13 21 19 95 57 111 57 8 0 17 6 20 14 3 7
26 23 51 36 25 12 46 26 46 31 0 5 8 9 18 9 10 0 32 14 50 30 18 17 38 30 44
30 6 0 19 6 27 14 9 7 41 31 72 52 67 47 115 83 140 107 11 9 24 17 29 17 6 0
13 7 16 15 4 8 11 15 17 15 5 0 25 16 44 35 19 19 38 35 43 35 4 0 44 35 89
78 44 42 112 106 151 142 38 36 70 71 70 78 0 6 7 12 15 12 8 0 15 4 15 8 0 4
43 51 95 104 52 53 95 103 95 111 0 8 7 17 15 21 8 3 15 10 15 15 0 6 11 22
25 37 14 15 28 38 31 51 4 13 10 23 16 23 5 0 14 14 19 30 6 17 15 30 20 30 5
0 9 7 9 15 0 9 7 18 15 21 8 3 17 24 20 47 7 47 21 70 48 80 13 5 17 18 17 62
0 40 4 57 15 61 8 4 15 12 15 19 0 7 7 18 15 25 10 9 15 31 15 72 0 42 6 68
18 86 26 38 34 60 38 112 7 88 15 145 24 155 4 5 11 38 15 73 l7 62 -701 0
c-461 0 -701 -3 -701 -10z"/>
<path d="M15100 17392 c-8 -5 -73 -12 -144 -15 -71 -3 -131 -9 -135 -15 -3 -5
-27 -12 -53 -16 -26 -4 -50 -11 -53 -15 -2 -5 -32 -11 -64 -15 -33 -4 -63 -11
-66 -16 -4 -6 -16 -10 -28 -10 -12 -1 -40 -9 -62 -20 -22 -11 -46 -19 -53 -20
-7 0 -15 -7 -18 -15 -4 -8 -18 -15 -34 -15 -15 0 -33 -7 -40 -15 -7 -8 -23
-15 -37 -15 -13 0 -26 -7 -29 -15 -4 -8 -15 -15 -25 -15 -11 0 -22 -7 -25 -15
-4 -8 -17 -15 -30 -15 -14 0 -27 -6 -30 -14 -3 -8 -19 -18 -35 -21 -16 -4 -29
-11 -29 -16 0 -5 -6 -9 -13 -9 -8 0 -22 -9 -32 -20 -10 -11 -24 -20 -32 -20
-7 0 -13 -4 -13 -9 0 -5 -24 -24 -52 -42 -29 -19 -68 -49 -86 -66 -18 -18 -35
-33 -37 -33 -6 0 -45 -38 -45 -44 0 -13 -86 -86 -101 -86 -11 0 -19 -3 -20 -7
0 -5 -2 -16 -4 -25 -3 -17 8 -23 30 -18 6 1 39 2 75 1 38 0 77 5 92 13 15 8
42 17 60 21 18 4 38 11 43 15 6 4 28 10 49 13 22 4 42 11 46 17 4 6 31 15 61
20 87 15 162 32 194 45 17 7 68 13 115 14 105 2 170 10 170 22 0 14 278 11
303 -3 12 -7 72 -16 132 -19 61 -3 124 -11 140 -17 63 -23 139 -42 170 -42 18
0 38 -6 44 -14 7 -8 26 -18 42 -21 17 -4 42 -13 57 -21 15 -8 33 -14 40 -14 6
0 12 -4 12 -10 0 -5 18 -13 40 -16 22 -4 45 -13 51 -20 6 -8 19 -14 29 -14 10
0 23 -7 30 -15 7 -8 19 -15 26 -15 8 0 14 -4 14 -10 0 -5 12 -13 28 -16 25 -6
80 -39 92 -55 3 -3 16 -10 29 -14 14 -4 39 -20 55 -36 17 -16 36 -29 43 -29 6
0 27 -13 45 -30 18 -16 40 -30 50 -30 10 0 18 -4 18 -9 0 -5 7 -11 15 -15 13
-5 15 43 15 390 0 367 -1 395 -17 401 -10 4 -24 13 -31 20 -7 7 -22 13 -31 13
-10 0 -24 7 -31 15 -7 8 -18 15 -24 15 -6 1 -29 9 -51 20 -22 11 -47 19 -57
20 -9 0 -18 5 -20 11 -2 6 -28 14 -58 17 -30 3 -60 11 -68 18 -7 8 -31 14 -52
14 -21 0 -40 5 -42 11 -6 18 -521 47 -548 31z"/>
<path d="M9958 16881 c-27 -4 -53 -12 -60 -19 -7 -7 -22 -12 -34 -12 -12 0
-27 -6 -33 -14 -6 -7 -29 -16 -51 -20 -22 -3 -40 -10 -40 -15 0 -5 -12 -14
-27 -20 -16 -6 -36 -15 -45 -21 -45 -26 -54 -31 -68 -37 -8 -3 -19 -12 -23
-20 -4 -7 -16 -13 -27 -13 -10 0 -25 -7 -34 -15 -8 -8 -22 -15 -31 -15 -8 0
-18 -7 -21 -15 -4 -8 -11 -15 -18 -15 -6 0 -23 -13 -37 -29 -14 -15 -34 -31
-45 -35 -11 -3 -34 -19 -50 -35 -16 -15 -48 -40 -71 -55 -54 -33 -447 -425
-488 -486 -16 -24 -42 -57 -57 -72 -16 -16 -28 -37 -28 -47 0 -10 -7 -21 -15
-25 -8 -3 -15 -10 -15 -16 0 -6 -13 -24 -30 -40 -16 -16 -30 -36 -30 -45 0 -9
-7 -18 -15 -21 -8 -4 -15 -12 -15 -19 0 -7 -7 -15 -15 -19 -8 -3 -15 -12 -15
-19 0 -8 -13 -32 -28 -53 -16 -21 -39 -61 -53 -89 -13 -27 -30 -54 -36 -58 -7
-4 -13 -19 -13 -32 0 -14 -4 -25 -10 -25 -5 0 -13 -12 -16 -27 -4 -15 -13 -34
-21 -41 -7 -7 -13 -22 -13 -31 0 -10 -7 -24 -15 -31 -8 -7 -15 -20 -15 -29 0
-9 -9 -24 -20 -34 -15 -12 -18 -24 -14 -46 5 -22 0 -37 -15 -57 -11 -15 -21
-31 -21 -36 0 -5 -6 -16 -14 -23 -7 -8 -14 -34 -14 -60 -1 -36 -7 -51 -28 -70
-23 -21 -27 -35 -32 -97 -3 -40 -8 -75 -13 -78 -29 -19 -64 -207 -53 -286 4
-30 2 -44 -10 -53 -10 -8 -16 -29 -16 -52 0 -24 -6 -41 -16 -47 -13 -7 -15
-19 -10 -63 4 -30 8 -90 10 -134 5 -104 15 -162 32 -176 10 -8 14 -37 14 -99
0 -66 4 -91 15 -100 8 -7 15 -20 15 -30 0 -10 6 -23 14 -29 7 -6 16 -30 19
-53 3 -22 9 -44 14 -47 4 -3 19 -27 33 -53 13 -27 28 -48 32 -48 5 0 8 -5 8
-11 0 -15 56 -95 88 -124 30 -28 73 -33 92 -10 7 8 27 15 45 15 18 0 38 7 45
15 7 8 21 15 31 15 9 0 24 7 32 15 8 7 26 17 41 21 14 3 26 10 26 14 0 5 13
11 29 15 16 3 35 13 42 21 6 8 20 14 31 14 10 0 21 7 24 15 4 8 15 15 25 15
11 0 22 6 25 14 3 8 17 16 32 19 15 3 39 16 53 29 14 13 51 37 82 53 31 17 57
33 57 38 0 4 7 7 15 7 9 0 18 7 21 15 3 8 26 24 50 35 24 12 44 26 44 31 0 5
7 9 15 9 9 0 18 7 21 15 4 8 13 15 22 15 8 0 30 15 48 33 39 38 47 45 94 76
19 14 47 37 62 53 15 15 29 28 32 28 11 0 206 198 206 209 0 6 4 11 9 11 8 0
70 61 125 124 14 16 26 35 26 41 0 7 7 15 15 19 8 3 15 10 15 15 0 6 14 24 30
41 17 17 30 37 30 46 0 8 7 17 15 20 8 4 15 12 15 19 0 7 7 15 15 19 8 3 15
12 15 20 0 7 7 16 15 20 8 3 15 12 15 19 0 8 6 20 14 26 8 7 18 26 21 42 4 16
10 29 15 29 5 0 11 14 15 30 4 17 11 30 16 30 5 0 11 11 15 25 3 14 10 25 14
25 5 0 12 14 15 32 4 17 14 38 21 46 8 7 14 24 14 37 0 13 5 25 11 27 5 2 13
24 16 48 3 25 12 49 19 53 8 4 14 17 14 27 0 10 6 23 14 27 8 5 15 35 18 83 3
41 11 76 17 78 6 2 11 23 11 46 0 23 7 52 16 64 13 19 16 62 18 250 4 357 -15
615 -50 649 -8 8 -14 32 -14 53 0 21 -4 42 -10 45 -5 3 -10 23 -10 44 0 25 -7
44 -20 56 -15 13 -20 31 -20 66 0 44 -30 124 -51 139 -4 3 -11 18 -14 33 -4
15 -11 30 -16 33 -5 3 -9 16 -9 29 0 13 -6 30 -13 37 -8 7 -17 26 -21 41 -3
15 -13 27 -20 27 -8 0 -20 2 -28 4 -7 2 -34 0 -60 -3z"/>
<path d="M6840 15283 c-22 -3 -45 -15 -62 -34 -15 -16 -33 -29 -40 -29 -7 -1
-49 -34 -93 -75 -43 -41 -88 -78 -99 -81 -26 -9 -256 -243 -256 -262 0 -4 -22
-31 -49 -60 -27 -30 -62 -72 -78 -95 -15 -22 -40 -54 -55 -71 -16 -17 -28 -39
-28 -49 0 -9 -7 -20 -15 -23 -8 -4 -15 -10 -15 -15 0 -5 -9 -18 -20 -29 -11
-11 -20 -27 -20 -35 0 -8 -3 -15 -8 -15 -4 0 -19 -21 -32 -47 -14 -25 -37 -59
-52 -75 -16 -16 -28 -37 -28 -47 0 -10 -7 -21 -15 -25 -8 -3 -15 -16 -15 -30
0 -13 -7 -26 -15 -30 -8 -3 -15 -17 -15 -31 0 -14 -7 -28 -15 -31 -8 -4 -15
-12 -15 -20 0 -7 -6 -17 -13 -21 -8 -4 -17 -23 -20 -41 -4 -18 -14 -40 -22
-48 -8 -9 -15 -24 -15 -34 0 -10 -7 -20 -15 -24 -9 -3 -15 -18 -15 -36 0 -16
-4 -30 -10 -30 -5 0 -13 -12 -16 -27 -4 -15 -13 -34 -21 -41 -7 -7 -13 -28
-13 -47 0 -32 -4 -44 -44 -123 -9 -19 -16 -54 -16 -79 0 -25 -6 -57 -14 -71
-33 -62 -44 -101 -50 -176 -3 -43 -11 -85 -16 -91 -11 -14 -31 -272 -32 -415
0 -122 19 -369 30 -383 5 -7 12 -55 15 -107 3 -59 11 -106 21 -125 9 -16 16
-41 16 -56 0 -14 5 -30 12 -37 7 -7 15 -36 19 -64 8 -59 29 -122 47 -140 7 -7
12 -31 12 -54 0 -24 6 -49 15 -57 7 -8 17 -26 21 -41 3 -14 10 -29 15 -32 5
-3 9 -16 9 -29 0 -13 4 -27 10 -30 5 -3 31 -50 56 -103 26 -53 51 -99 54 -102
4 -3 10 -15 14 -27 4 -13 11 -23 16 -23 4 0 11 -11 14 -25 4 -14 11 -25 16
-25 6 0 10 -9 10 -20 0 -11 6 -23 14 -26 8 -3 17 -16 20 -30 4 -13 11 -24 16
-24 6 0 10 -5 10 -10 0 -6 16 -33 35 -60 19 -27 35 -54 35 -60 0 -5 5 -10 11
-10 5 0 15 -13 20 -30 6 -16 15 -30 20 -30 5 0 9 -7 9 -15 0 -7 6 -18 13 -22
8 -4 17 -15 21 -23 16 -35 34 -58 81 -108 51 -54 82 -65 105 -37 7 8 23 15 37
15 13 0 26 7 29 15 4 8 15 15 25 15 11 0 22 7 25 15 4 8 15 15 25 15 11 0 22
7 25 15 4 8 12 15 20 15 8 0 14 4 14 9 0 5 23 23 50 41 28 18 50 36 50 41 0 5
7 9 15 9 8 0 15 5 15 10 0 10 36 50 45 50 13 0 383 382 425 439 14 18 33 42
43 52 9 11 17 21 17 24 0 2 20 26 45 52 25 26 48 58 51 71 3 12 9 22 13 22 4
0 18 19 31 43 13 23 30 48 37 55 7 7 13 20 13 27 0 8 14 29 30 47 17 18 30 40
30 49 0 9 7 22 15 29 8 7 15 21 15 32 0 10 7 21 15 24 8 4 15 11 15 16 0 6 13
30 30 54 16 24 32 60 36 81 4 21 13 44 21 51 7 7 13 19 13 26 0 8 7 19 15 26
8 7 15 27 15 44 0 17 7 40 15 50 8 11 15 27 15 37 0 9 7 19 15 23 10 4 15 20
15 54 0 27 6 57 15 68 8 10 15 27 15 36 0 9 6 21 13 25 14 8 34 101 46 209 3
34 13 69 21 79 13 15 15 72 15 366 0 315 -2 349 -18 366 -9 11 -17 31 -17 45
0 15 -5 28 -11 30 -7 2 -12 38 -14 89 -1 54 -8 96 -19 116 -9 18 -16 39 -16
48 0 9 -7 18 -16 22 -13 5 -15 14 -10 44 5 32 3 41 -14 51 -11 7 -20 23 -20
36 0 12 -7 25 -15 28 -10 4 -15 20 -15 45 0 26 -5 42 -15 45 -8 4 -15 14 -15
23 0 9 -6 25 -14 36 -7 11 -17 35 -21 54 -4 19 -14 41 -21 49 -8 7 -14 19 -14
26 0 8 -7 19 -15 26 -8 7 -15 23 -15 36 0 13 -6 27 -13 31 -6 4 -22 29 -35 56
-13 26 -28 47 -33 47 -5 0 -9 11 -9 25 0 14 -7 28 -15 31 -8 4 -15 14 -15 24
0 10 -7 25 -15 34 -8 8 -15 21 -15 28 0 7 -23 47 -50 88 -27 41 -50 80 -50 86
0 7 -7 14 -15 18 -8 3 -15 12 -15 21 0 8 -7 15 -15 15 -9 0 -15 9 -15 25 0 14
-7 28 -15 31 -8 4 -15 13 -15 20 0 8 -7 17 -15 20 -8 4 -15 14 -15 23 -1 16
-101 131 -115 131 -4 0 -13 7 -19 16 -13 17 -70 25 -126 17z"/>
<path d="M11470 13928 c-91 -4 -176 -9 -190 -11 -14 -3 -69 -5 -122 -6 -75 -1
-100 -5 -113 -17 -13 -13 -42 -18 -128 -21 -72 -3 -120 -10 -134 -19 -12 -8
-35 -14 -50 -14 -16 0 -37 -6 -48 -14 -11 -7 -51 -15 -89 -18 -42 -2 -71 -9
-74 -16 -2 -8 -28 -12 -72 -12 -48 0 -71 -4 -80 -15 -7 -8 -21 -15 -31 -15 -9
0 -24 -7 -33 -15 -8 -8 -31 -15 -51 -15 -20 0 -51 -6 -68 -14 -18 -8 -49 -17
-69 -21 -21 -3 -38 -10 -38 -15 0 -6 -9 -10 -20 -10 -11 0 -37 -9 -57 -20 -21
-11 -48 -20 -60 -20 -13 0 -23 -4 -23 -8 0 -5 -18 -14 -40 -21 -22 -6 -40 -16
-40 -21 0 -6 -16 -10 -35 -10 -22 0 -38 -6 -41 -15 -4 -8 -17 -15 -30 -15 -14
0 -27 -7 -30 -15 -4 -8 -16 -15 -28 -15 -11 -1 -39 -12 -61 -25 -22 -14 -47
-27 -55 -31 -8 -3 -22 -9 -30 -14 -46 -28 -114 -60 -126 -60 -8 0 -14 -7 -14
-15 0 -9 -9 -15 -25 -15 -14 0 -28 -6 -31 -14 -3 -8 -16 -17 -30 -20 -13 -4
-24 -11 -24 -16 0 -6 -6 -10 -14 -10 -8 0 -21 -6 -28 -14 -8 -7 -23 -16 -33
-20 -11 -3 -35 -20 -54 -36 -18 -17 -39 -30 -46 -30 -7 0 -15 -7 -19 -15 -3
-8 -10 -15 -16 -15 -6 0 -24 -13 -40 -30 -16 -16 -32 -30 -36 -30 -9 0 -84
-59 -114 -89 -32 -33 -116 -101 -125 -101 -10 0 -87 -87 -121 -136 -12 -17
-42 -51 -67 -76 -25 -25 -67 -76 -92 -113 -45 -63 -52 -95 -22 -95 8 0 20 -7
27 -15 7 -9 29 -15 51 -15 21 0 56 -6 76 -14 21 -8 78 -17 126 -20 60 -4 93
-10 103 -21 23 -22 810 -23 840 0 11 8 42 15 74 15 30 1 75 5 100 10 25 5 79
15 121 23 42 8 82 18 89 22 8 5 37 9 66 10 29 1 63 9 78 18 16 11 46 17 79 17
36 0 59 5 67 15 7 9 29 15 54 15 23 0 51 7 62 15 10 8 33 15 51 15 17 0 38 7
47 15 8 8 27 15 43 15 16 0 37 6 48 14 11 7 37 16 58 20 20 4 37 11 37 15 0 5
17 11 39 15 21 3 51 13 67 21 16 8 36 15 45 15 9 0 22 7 29 15 7 8 23 15 35
15 12 0 28 7 35 15 7 8 23 15 37 15 13 0 26 7 29 15 4 8 16 15 29 15 12 0 28
7 35 15 7 8 21 15 31 15 9 0 24 7 33 15 8 8 24 15 35 15 11 0 24 6 28 13 9 13
94 57 112 57 6 0 11 4 11 9 0 5 13 12 29 16 16 3 32 13 35 21 3 8 15 14 26 14
11 0 23 7 26 15 4 8 13 15 20 15 8 0 17 7 20 15 4 8 12 15 19 15 18 0 112 61
150 97 28 26 52 43 84 59 7 4 47 40 88 81 41 40 78 73 82 73 11 0 141 132 141
143 0 4 12 19 27 33 41 38 130 163 174 244 13 24 30 50 37 58 16 17 15 34 -1
57 -12 15 -31 18 -134 20 -66 2 -138 5 -159 9 -129 19 -346 25 -574 14z"/>
<path d="M4394 12355 c-4 -8 -12 -15 -19 -15 -7 0 -22 -22 -34 -50 -12 -27
-26 -50 -31 -50 -6 0 -10 -7 -10 -15 0 -21 -40 -96 -68 -125 -13 -14 -26 -37
-29 -52 -3 -15 -11 -29 -19 -32 -8 -3 -14 -14 -14 -25 0 -10 -7 -21 -15 -25
-8 -3 -15 -16 -15 -30 0 -13 -7 -26 -15 -30 -8 -3 -15 -14 -15 -24 0 -11 -7
-25 -15 -32 -8 -7 -15 -19 -15 -26 0 -17 -41 -98 -52 -102 -4 -2 -8 -19 -8
-38 0 -19 -5 -34 -10 -34 -14 0 -60 -103 -60 -135 0 -15 -7 -33 -15 -41 -8 -9
-15 -26 -15 -40 0 -13 -4 -24 -10 -24 -5 0 -12 -22 -16 -49 -4 -28 -12 -52
-20 -55 -9 -3 -14 -21 -14 -48 -1 -24 -7 -54 -15 -68 -8 -14 -14 -47 -15 -74
0 -31 -5 -53 -15 -60 -8 -6 -19 -38 -25 -71 -10 -56 -28 -281 -31 -405 -1 -30
-8 -68 -16 -84 -10 -19 -12 -40 -7 -65 4 -20 8 -58 10 -86 2 -27 8 -84 13
-125 5 -41 10 -106 11 -145 0 -38 7 -88 15 -110 8 -22 14 -54 15 -71 0 -17 7
-37 15 -44 10 -8 15 -30 15 -64 0 -28 7 -64 15 -80 8 -15 15 -39 15 -51 0 -13
6 -30 13 -37 8 -7 16 -40 20 -73 3 -33 11 -61 17 -63 5 -2 10 -11 10 -21 0 -9
7 -26 15 -37 8 -10 15 -29 15 -41 0 -12 6 -28 14 -35 7 -8 17 -29 21 -46 3
-18 17 -51 29 -75 13 -23 40 -73 60 -112 21 -38 44 -75 52 -81 8 -6 14 -21 14
-32 0 -12 6 -25 13 -29 14 -9 32 -37 47 -70 5 -13 14 -23 19 -23 5 0 11 -10
15 -22 3 -13 19 -38 36 -56 16 -18 30 -37 30 -43 0 -5 4 -9 9 -9 5 0 12 -8 16
-17 3 -10 28 -43 55 -73 67 -74 70 -78 70 -88 0 -5 19 -29 41 -53 90 -95 321
-329 326 -329 3 0 41 -36 86 -80 45 -44 86 -80 92 -80 5 -1 21 -14 35 -30 13
-17 28 -30 32 -30 11 0 48 -38 48 -50 0 -5 3 -10 8 -10 4 0 21 -12 38 -27 17
-16 47 -36 68 -46 45 -21 27 -33 177 115 55 54 99 102 99 106 0 5 16 27 35 48
19 21 41 46 48 54 22 25 77 110 77 119 0 5 7 11 15 15 8 3 15 15 15 26 0 11 7
23 15 26 8 4 15 10 15 16 0 5 7 16 15 24 8 9 15 24 15 33 0 10 7 24 15 31 8 7
15 18 15 26 0 7 6 19 13 26 8 7 17 31 21 52 4 21 21 53 37 70 23 25 29 40 29
79 0 26 4 47 10 47 5 0 12 11 16 25 3 13 12 29 20 36 9 7 14 31 14 64 0 53 22
112 48 128 8 6 12 43 12 127 0 85 4 121 13 127 32 20 41 96 44 367 3 211 1
271 -9 278 -10 6 -10 8 0 8 17 0 15 90 -3 114 -8 11 -15 27 -15 37 0 9 -7 19
-15 23 -12 4 -15 28 -15 126 0 101 -3 127 -20 160 -11 21 -24 41 -30 45 -5 3
-10 44 -10 91 0 54 -4 84 -11 84 -27 0 -48 45 -49 102 0 50 -4 61 -30 88 -20
20 -30 41 -30 61 0 16 -16 59 -35 95 -19 35 -35 74 -35 85 0 11 -6 27 -12 34
-34 37 -41 49 -49 81 -6 19 -14 34 -19 34 -6 0 -10 9 -10 20 0 11 -6 23 -14
26 -8 3 -17 16 -20 30 -4 13 -11 24 -16 24 -6 0 -10 8 -10 18 0 11 -9 30 -20
43 -32 39 -34 42 -55 82 -11 22 -27 44 -36 50 -9 7 -19 22 -23 35 -4 12 -12
22 -17 22 -5 0 -9 6 -9 13 0 7 -13 24 -30 37 -16 14 -29 30 -30 36 0 6 -11 24
-25 40 -14 16 -43 48 -63 71 -58 66 -112 123 -117 123 -2 0 -19 15 -38 33 -18
17 -64 60 -103 95 -38 35 -76 69 -85 77 -9 8 -21 15 -27 15 -7 0 -12 4 -12 9
0 4 -19 21 -42 37 -24 16 -45 32 -48 35 -12 14 -111 79 -120 79 -5 0 -10 5
-10 10 0 6 -8 10 -19 10 -10 0 -30 9 -44 20 -14 11 -30 20 -35 20 -5 0 -15 7
-22 15 -7 8 -21 15 -30 15 -10 0 -20 4 -22 8 -6 15 -75 52 -97 52 -12 0 -24
-7 -27 -15z"/>
<path d="M9001 11053 c-52 -2 -100 -8 -106 -13 -7 -5 -126 -10 -272 -10 -194
-1 -266 -4 -285 -14 -18 -10 -111 -15 -344 -20 -255 -5 -323 -9 -341 -21 -12
-8 -32 -15 -43 -15 -11 0 -23 -6 -26 -14 -3 -8 -15 -17 -27 -20 -12 -3 -32
-14 -45 -24 l-22 -17 0 -4020 c0 -2211 -3 -4036 -6 -4056 -5 -29 -15 -42 -50
-64 -24 -15 -44 -32 -44 -37 0 -4 -113 -8 -252 -8 -198 1 -257 4 -279 16 -15
7 -37 14 -47 14 -11 0 -28 12 -38 27 -18 27 -18 128 -15 2868 2 1988 0 2848
-8 2868 -10 25 -14 27 -71 27 -53 0 -62 -3 -70 -22 -13 -30 -30 -55 -59 -87
-13 -14 -28 -38 -33 -53 -6 -16 -14 -28 -19 -28 -5 0 -9 -6 -9 -13 0 -8 -9
-22 -20 -32 -11 -10 -20 -22 -20 -26 0 -4 -13 -23 -30 -41 -16 -18 -30 -38
-30 -46 0 -7 -12 -25 -27 -40 -16 -15 -37 -46 -48 -67 -11 -22 -28 -47 -37
-57 -10 -10 -18 -24 -18 -32 0 -8 -6 -16 -13 -19 -7 -2 -21 -22 -32 -43 -11
-21 -32 -56 -47 -78 -16 -21 -28 -45 -28 -53 0 -8 -7 -21 -15 -29 -8 -9 -15
-24 -15 -33 0 -10 -7 -24 -15 -31 -8 -7 -15 -20 -15 -29 0 -10 -7 -26 -15 -37
-8 -10 -15 -31 -15 -45 0 -15 -7 -40 -15 -55 -8 -16 -15 -42 -15 -57 0 -29 32
-101 50 -112 5 -3 10 -21 10 -39 0 -19 6 -39 14 -45 8 -7 17 -23 20 -36 4 -14
11 -25 16 -25 6 0 10 -9 10 -20 0 -19 37 -100 51 -110 3 -3 9 -22 13 -42 4
-21 11 -38 16 -38 6 0 10 -11 10 -24 0 -13 8 -34 18 -47 10 -13 19 -37 20 -52
1 -15 9 -41 17 -57 8 -16 15 -36 15 -45 0 -9 7 -23 15 -31 8 -9 15 -27 15 -42
1 -15 7 -38 15 -52 8 -14 14 -44 15 -66 0 -24 6 -47 15 -54 9 -7 15 -29 15
-52 0 -21 7 -55 15 -75 8 -19 15 -61 15 -92 0 -36 6 -65 16 -79 10 -15 18 -54
21 -105 3 -45 10 -88 16 -95 17 -21 15 -935 -3 -957 -4 -5 -10 -52 -12 -103
-4 -63 -10 -98 -21 -110 -9 -10 -17 -44 -20 -82 -10 -115 -30 -225 -44 -233
-9 -5 -13 -29 -13 -71 0 -44 -5 -67 -15 -76 -8 -7 -15 -29 -15 -50 0 -21 -7
-43 -15 -50 -8 -7 -15 -28 -15 -47 0 -19 -6 -49 -14 -66 -8 -18 -17 -49 -20
-69 -4 -20 -11 -38 -17 -40 -5 -2 -12 -21 -16 -43 -3 -22 -10 -43 -15 -46 -5
-3 -12 -26 -15 -50 -4 -24 -12 -50 -20 -57 -7 -7 -13 -25 -13 -40 0 -15 -7
-36 -15 -46 -8 -11 -15 -31 -15 -44 0 -13 -7 -30 -15 -38 -8 -9 -15 -28 -15
-44 0 -16 -7 -30 -15 -34 -8 -3 -15 -18 -15 -33 0 -16 -6 -37 -14 -48 -7 -11
-16 -32 -20 -47 -3 -16 -11 -28 -16 -28 -6 0 -10 -6 -10 -12 0 -7 -13 -39 -29
-70 -16 -32 -32 -71 -36 -88 -4 -16 -11 -30 -16 -30 -5 0 -11 -11 -15 -25 -3
-13 -12 -29 -20 -36 -8 -6 -14 -24 -14 -39 0 -15 -7 -33 -15 -40 -8 -7 -15
-21 -15 -32 0 -10 -7 -21 -15 -24 -8 -4 -15 -15 -15 -25 0 -10 -4 -19 -8 -19
-5 0 -30 -43 -57 -96 -27 -52 -52 -97 -57 -100 -4 -3 -8 -13 -8 -24 0 -10 -7
-20 -15 -24 -8 -3 -15 -12 -15 -20 0 -7 -7 -16 -15 -20 -8 -3 -15 -15 -15 -26
0 -11 -7 -23 -15 -26 -8 -4 -15 -12 -15 -20 0 -8 -6 -14 -14 -14 -8 0 -16 -7
-20 -15 -3 -8 -16 -15 -29 -15 -14 0 -30 -6 -36 -14 -8 -10 -41 -15 -107 -18
-58 -2 -98 -8 -102 -15 -4 -7 -49 -14 -107 -19 -55 -3 -109 -11 -120 -17 -11
-6 -47 -11 -81 -12 -34 -2 -77 -8 -95 -14 -19 -6 -74 -12 -124 -13 -85 -3 -90
-2 -87 17 2 11 10 25 18 31 8 6 14 18 14 27 0 9 4 18 9 21 4 3 21 32 37 63 16
32 31 60 34 63 5 5 35 58 69 125 9 17 22 34 29 38 6 4 12 19 12 32 0 14 4 25
9 25 8 0 91 159 91 174 0 4 5 12 10 19 18 20 74 110 95 152 11 22 26 46 33 53
6 7 12 22 12 31 0 10 7 24 15 31 8 7 15 17 15 22 0 5 7 16 15 24 8 9 15 24 15
35 0 11 6 22 14 25 8 3 18 19 21 35 4 16 11 29 16 29 5 0 9 6 9 13 0 7 16 44
35 81 19 38 35 75 35 82 0 8 4 14 9 14 5 0 12 18 16 41 4 22 13 43 21 46 8 3
14 19 14 37 0 18 7 41 15 52 8 10 15 26 15 35 0 9 6 22 14 28 8 6 17 32 21 56
3 25 10 45 16 45 5 0 9 8 9 18 0 9 7 30 15 45 8 16 17 50 21 78 4 27 10 49 15
49 5 0 9 10 9 23 0 12 9 39 20 60 11 20 20 55 20 77 0 22 4 40 9 40 5 0 12 26
16 58 3 31 13 69 21 84 7 14 14 40 14 57 0 17 5 31 10 31 6 0 10 23 9 53 -2
75 16 228 29 254 7 12 12 37 12 56 0 19 7 47 15 64 13 25 14 53 6 174 -8 137
-7 249 5 366 4 35 1 69 -10 100 -9 25 -16 63 -16 83 0 20 -6 42 -12 48 -7 7
-16 50 -19 95 -11 131 -30 251 -44 267 -7 8 -16 41 -20 73 -3 31 -11 57 -16
57 -5 0 -9 17 -9 39 0 21 -6 44 -14 50 -7 6 -16 29 -20 51 -3 22 -10 40 -15
40 -5 0 -11 21 -14 47 -3 26 -10 49 -16 51 -6 2 -13 20 -17 40 -4 20 -13 46
-20 57 -8 11 -14 29 -14 41 0 12 -7 27 -15 34 -8 7 -15 19 -15 26 0 17 -41 98
-52 102 -4 2 -8 10 -8 18 0 14 -39 96 -51 104 -3 3 -9 15 -13 28 -4 12 -12 22
-17 22 -5 0 -9 7 -9 16 0 14 -39 94 -51 104 -8 7 -35 58 -50 93 -6 15 -15 27
-20 27 -5 0 -9 7 -9 15 0 9 -7 18 -15 21 -8 4 -15 13 -15 22 0 8 -6 23 -14 31
-7 9 -35 48 -61 86 -27 39 -64 86 -82 105 -18 19 -33 39 -33 45 0 6 -13 22
-30 35 -16 14 -29 29 -30 33 0 4 -12 20 -28 35 -15 15 -38 42 -51 60 -31 44
-315 332 -327 332 -5 0 -24 14 -42 30 -18 17 -37 30 -43 30 -5 0 -9 4 -9 9 0
6 -18 27 -41 48 -22 21 -59 56 -82 78 -23 22 -61 53 -84 69 -24 16 -43 33 -43
37 0 5 -7 9 -15 9 -9 0 -18 7 -21 15 -3 8 -15 17 -26 21 -12 3 -34 19 -49 35
-16 16 -33 29 -39 29 -5 0 -10 4 -10 9 0 4 -19 21 -43 37 -23 16 -43 32 -45
37 -2 4 -10 7 -18 7 -8 0 -14 4 -14 9 0 8 -161 121 -174 121 -3 0 -14 8 -24
18 -41 38 -75 63 -98 72 -13 5 -24 14 -24 20 0 5 -8 10 -18 10 -10 0 -27 7
-38 15 -10 8 -27 15 -36 15 -9 0 -21 6 -25 13 -8 12 -47 33 -145 77 -27 12
-48 26 -48 31 0 5 -6 9 -14 9 -7 0 -19 7 -26 15 -9 11 -27 15 -54 13 -40 -3
-41 -4 -44 -43 -2 -22 3 -53 11 -70 21 -43 36 -123 48 -260 6 -66 14 -124 18
-130 5 -5 11 -27 15 -47 4 -21 11 -38 15 -38 5 0 12 -66 16 -147 4 -82 11
-150 15 -153 5 -3 11 -30 15 -59 3 -30 10 -62 15 -71 5 -9 12 -84 16 -166 4
-93 12 -159 20 -176 8 -15 14 -40 14 -55 0 -16 6 -38 14 -48 10 -15 14 -55 15
-140 1 -95 4 -122 16 -131 8 -6 15 -20 15 -31 0 -11 7 -26 15 -33 11 -9 15
-34 15 -98 0 -70 4 -91 22 -121 12 -20 26 -38 30 -39 4 -2 8 -42 8 -88 0 -66
3 -86 15 -90 8 -4 15 -11 15 -16 0 -5 9 -21 20 -35 16 -20 20 -41 20 -99 0
-42 4 -74 10 -74 5 0 12 -11 16 -25 3 -13 12 -29 20 -36 9 -7 14 -32 14 -70 0
-33 4 -59 9 -59 4 0 14 -20 21 -45 7 -25 17 -48 21 -51 5 -3 9 -22 9 -43 0
-22 6 -44 15 -51 8 -7 15 -18 15 -26 0 -7 6 -19 14 -26 7 -8 16 -35 20 -61 4
-26 11 -47 16 -47 5 0 11 -13 15 -30 4 -16 10 -30 14 -30 5 0 11 -21 15 -46 3
-25 26 -85 51 -133 25 -48 45 -92 45 -98 0 -6 7 -16 15 -23 8 -7 15 -21 15
-32 0 -26 38 -108 50 -108 6 0 10 -9 10 -19 0 -11 6 -26 12 -33 7 -7 21 -29
30 -48 9 -19 35 -74 58 -122 23 -49 46 -88 51 -88 5 0 9 -9 9 -19 0 -11 7 -26
15 -35 8 -8 15 -24 15 -36 0 -11 7 -23 15 -26 8 -4 15 -13 15 -20 0 -8 7 -17
15 -20 8 -4 15 -15 15 -27 0 -11 16 -53 35 -93 19 -40 35 -82 35 -93 0 -12 4
-29 9 -39 5 -9 14 -28 20 -42 6 -14 15 -32 20 -40 19 -33 41 -118 41 -161 0
-25 7 -54 15 -65 8 -10 15 -36 15 -58 0 -21 7 -65 15 -97 13 -48 15 -113 12
-347 -3 -290 -17 -454 -43 -504 -8 -14 -14 -38 -14 -51 0 -14 -5 -29 -10 -32
-6 -4 -7 -13 -2 -21 5 -9 3 -37 -5 -67 -7 -28 -13 -71 -13 -96 0 -29 -5 -48
-16 -56 -12 -8 -19 -36 -25 -91 -13 -132 -27 -202 -43 -226 -9 -12 -16 -35
-16 -50 0 -15 -4 -29 -9 -32 -5 -3 -12 -40 -16 -83 -4 -43 -13 -83 -21 -90 -8
-8 -14 -23 -14 -33 0 -10 -5 -22 -10 -25 -6 -4 -10 -25 -10 -48 2 -62 -11
-150 -23 -166 -12 -14 -31 -45 -43 -70 -19 -38 -88 -81 -129 -81 -15 0 -41 -6
-58 -14 -18 -8 -52 -19 -77 -25 -108 -24 -164 -41 -173 -50 -6 -6 -32 -11 -58
-11 -29 0 -51 -6 -59 -15 -7 -8 -20 -15 -29 -15 -10 0 -26 -7 -37 -15 -11 -8
-41 -15 -71 -15 -32 0 -57 -6 -67 -15 -8 -8 -31 -15 -51 -15 -22 0 -38 -6 -41
-15 -4 -9 -19 -15 -38 -15 -18 0 -41 -7 -52 -15 -10 -8 -33 -15 -50 -15 -17 0
-37 -7 -44 -15 -7 -8 -21 -15 -31 -15 -20 0 -133 -35 -160 -50 -9 -5 -33 -12
-52 -15 -20 -4 -41 -13 -48 -21 -6 -8 -27 -14 -46 -14 -21 0 -36 -6 -39 -15
-4 -10 -20 -15 -44 -15 -21 0 -45 -7 -54 -15 -8 -8 -31 -15 -51 -15 -22 0 -38
-6 -41 -15 -4 -8 -18 -15 -33 -15 -27 0 -137 -35 -156 -50 -5 -4 -22 -10 -38
-14 l-27 -6 0 -130 c0 -132 3 -140 38 -121 9 6 33 13 53 16 21 3 42 12 49 20
7 8 23 15 35 15 12 0 28 7 35 15 8 9 29 15 55 15 29 0 45 5 49 15 3 10 19 15
45 15 22 0 46 7 55 15 8 8 27 15 43 15 15 0 37 7 47 15 11 8 30 15 42 15 13 0
29 7 38 15 8 8 28 15 45 15 16 0 36 7 44 15 8 8 33 17 56 21 23 4 41 10 41 15
0 4 20 11 44 14 25 4 47 13 50 21 3 8 20 14 40 14 19 0 41 7 50 15 8 8 32 15
56 15 27 0 43 5 46 15 4 10 20 15 44 15 21 0 43 7 50 15 7 8 29 15 49 15 20 0
45 7 55 15 11 8 30 15 42 15 13 0 29 7 38 15 8 8 30 15 48 15 18 0 45 6 59 14
14 7 43 16 65 20 21 5 44 11 49 16 6 4 31 10 58 13 26 4 58 14 72 23 51 33 54
-11 3 -56 -20 -17 -28 -34 -28 -56 0 -17 -7 -37 -15 -44 -8 -7 -15 -20 -15
-30 0 -10 -7 -23 -15 -30 -8 -7 -15 -18 -15 -24 0 -7 -11 -28 -25 -46 -14 -19
-31 -53 -37 -75 -7 -22 -18 -46 -25 -53 -7 -7 -13 -20 -13 -28 0 -9 -7 -22
-15 -30 -8 -9 -15 -24 -15 -34 0 -10 -7 -20 -15 -24 -25 -9 -18 -67 10 -94 19
-18 37 -24 79 -25 54 -1 57 0 93 43 21 24 46 51 56 59 9 9 17 22 17 29 0 8 20
33 45 58 25 24 45 46 45 49 0 11 45 69 88 112 23 24 42 48 42 54 0 5 7 12 15
15 8 4 15 10 15 16 0 9 55 84 76 103 6 5 26 31 43 58 41 60 127 148 165 167
57 29 66 35 66 42 0 5 15 8 33 8 17 0 50 5 72 11 54 14 197 37 325 52 58 7
115 18 127 25 12 7 48 12 80 12 37 0 67 6 79 15 11 8 41 15 71 15 31 0 53 5
56 13 3 6 6 1 6 -13 1 -15 -11 -39 -29 -58 -16 -18 -30 -36 -30 -40 0 -4 -23
-41 -50 -81 -28 -41 -50 -80 -50 -87 0 -7 -3 -14 -7 -16 -14 -6 -53 -67 -53
-83 0 -8 -4 -15 -9 -15 -5 0 -13 -10 -17 -22 -4 -13 -11 -26 -17 -29 -5 -4 -7
-15 -3 -24 6 -16 21 -17 170 -12 91 3 170 9 178 13 7 4 94 12 193 16 99 5 207
11 240 13 33 3 195 8 359 12 225 6 300 11 304 21 2 6 19 12 38 12 28 0 45 10
94 58 59 58 60 60 60 115 0 87 19 208 40 252 35 72 53 76 305 72 231 -4 325
-17 360 -49 18 -17 20 -33 21 -222 0 -112 4 -208 8 -214 5 -9 63 -12 191 -12
135 0 184 -3 187 -12 3 -9 94 -14 354 -19 192 -4 381 -12 419 -18 39 -5 95
-10 125 -10 31 -1 61 -6 68 -13 7 -7 92 -13 264 -16 191 -3 258 -8 273 -18 11
-8 44 -14 76 -14 38 0 61 -5 69 -15 7 -8 20 -15 29 -15 22 -1 61 -35 61 -55 0
-9 7 -29 15 -45 13 -26 15 -129 15 -774 0 -459 -4 -747 -10 -751 -6 -4 -5 -13
2 -24 9 -15 8 -24 -5 -45 -9 -14 -17 -31 -17 -38 -1 -22 -43 -65 -85 -87 l-40
-21 335 1 c184 1 325 4 312 6 -30 6 -64 40 -86 86 -10 21 -24 41 -31 43 -11 4
-14 62 -15 286 0 155 -3 285 -6 289 -2 4 -7 214 -10 466 -6 414 -5 465 10 527
10 38 25 76 33 85 30 30 68 51 94 51 15 0 32 7 39 15 10 12 42 15 169 15 122
0 161 3 178 15 16 11 62 15 222 15 159 1 203 4 207 15 3 8 31 16 75 20 38 4
72 11 75 16 3 5 41 9 84 9 60 0 81 4 87 15 7 11 30 16 88 18 57 1 87 7 105 20
13 9 32 17 42 17 9 0 19 4 22 9 3 4 33 11 68 14 40 3 66 11 74 21 7 10 26 16
52 16 26 0 42 5 46 15 3 9 18 15 34 15 16 0 35 7 42 15 7 9 29 15 51 15 20 0
44 7 53 15 8 8 30 15 49 15 19 0 40 7 47 15 7 8 23 15 37 15 13 0 26 7 29 15
4 8 14 15 24 15 10 0 25 7 34 15 8 8 21 15 28 15 7 0 37 23 66 50 29 28 57 50
61 50 5 0 11 7 15 15 3 8 14 15 25 15 11 0 26 6 34 14 8 8 31 18 51 21 20 4
36 11 36 15 0 4 24 11 52 14 29 4 57 11 63 16 6 5 159 9 340 10 498 2 475 3
468 -16 -3 -9 -55 -65 -116 -124 -62 -62 -107 -113 -103 -119 10 -15 63 -14
68 1 3 8 32 13 81 14 42 1 83 6 90 13 8 6 34 13 58 16 46 6 123 37 134 55 3 5
17 10 30 10 13 0 30 7 39 15 8 8 25 15 37 15 12 0 30 7 39 15 25 23 562 23
606 0 16 -8 54 -15 87 -15 32 0 70 -6 85 -14 15 -7 57 -16 95 -19 37 -2 73 -9
80 -15 7 -6 41 -13 75 -16 35 -2 69 -9 75 -14 7 -6 36 -13 66 -16 29 -3 60
-11 67 -17 8 -6 44 -13 81 -16 38 -3 82 -11 100 -19 17 -8 43 -14 57 -14 15 0
43 -7 63 -15 19 -8 48 -15 63 -15 15 0 33 -7 40 -15 9 -10 31 -15 72 -15 39 0
64 -5 74 -15 9 -8 27 -15 40 -15 14 0 32 -7 40 -15 9 -9 34 -15 61 -15 27 0
50 -6 57 -14 6 -8 40 -18 76 -24 71 -11 134 -32 152 -50 7 -7 26 -12 44 -12
18 0 34 -5 36 -11 2 -5 22 -13 46 -16 l42 -6 0 117 0 116 -29 6 c-17 4 -32 12
-35 20 -3 8 -20 14 -40 14 -19 0 -41 7 -50 15 -8 8 -24 15 -36 15 -11 0 -33 6
-49 14 -15 8 -49 17 -76 20 -27 3 -52 11 -55 16 -4 6 -29 13 -56 17 -27 3 -51
9 -55 14 -3 5 -27 12 -55 15 -27 4 -51 11 -55 15 -3 5 -27 12 -54 16 -28 3
-56 12 -63 20 -9 8 -38 13 -81 13 -49 0 -72 4 -81 15 -7 8 -29 15 -49 15 -20
0 -45 7 -55 15 -11 8 -40 15 -65 15 -25 0 -55 7 -65 15 -11 8 -40 15 -65 15
-25 0 -71 7 -101 15 -30 8 -77 17 -105 21 -27 3 -54 9 -60 13 -5 5 -57 11
-114 15 -59 3 -108 11 -112 17 -3 6 -45 13 -93 16 -72 5 -86 9 -86 23 0 16 29
50 44 50 6 0 64 38 76 50 9 9 69 50 73 50 3 0 24 19 48 43 24 23 62 56 84 72
84 63 119 96 170 160 21 28 59 69 82 92 24 24 43 45 43 47 0 2 19 24 43 49 24
25 53 66 66 91 12 25 27 46 32 46 5 0 11 11 15 25 3 14 9 25 13 25 3 0 18 21
31 47 14 26 31 54 38 61 6 7 12 22 12 32 0 10 7 20 15 24 8 3 15 16 15 30 0
13 7 26 15 30 8 3 15 14 15 23 0 10 6 28 14 39 8 11 19 42 25 70 19 96 32 136
46 151 11 11 15 39 15 108 0 52 4 96 9 99 5 3 12 27 16 52 4 26 13 54 21 61
18 19 16 326 -3 358 -7 11 -15 37 -18 58 -3 20 -10 37 -15 37 -4 0 -10 48 -12
107 -2 74 -7 108 -15 111 -7 2 -13 9 -13 15 0 7 -8 28 -18 47 -11 19 -20 53
-20 74 -1 22 -6 42 -11 45 -5 4 -13 19 -16 34 -4 16 -14 31 -21 34 -8 3 -14
15 -14 28 0 12 -6 28 -14 34 -8 7 -17 23 -20 36 -4 14 -11 25 -16 25 -6 0 -10
6 -10 14 0 8 -6 21 -14 28 -7 8 -17 24 -20 36 -4 12 -12 22 -17 22 -5 0 -9 8
-9 19 0 10 -7 24 -15 31 -8 6 -17 21 -21 32 -3 12 -19 34 -35 49 -16 16 -29
33 -29 39 0 5 -4 10 -10 10 -5 0 -16 12 -24 28 -8 15 -31 44 -50 65 -20 21
-36 40 -36 43 0 6 -79 84 -86 84 -3 0 -25 20 -50 45 -24 25 -47 45 -52 45 -5
0 -39 29 -77 65 -37 36 -72 65 -77 65 -9 0 -21 9 -56 40 -10 8 -35 24 -57 35
-22 11 -44 26 -48 33 -4 6 -14 12 -20 12 -7 0 -45 23 -85 50 -40 28 -83 50
-96 50 -13 0 -26 7 -30 15 -3 8 -16 15 -30 15 -13 0 -26 7 -30 15 -3 8 -15 15
-26 15 -12 0 -28 7 -36 15 -9 8 -29 15 -45 15 -17 0 -32 6 -35 15 -4 9 -19 15
-35 15 -16 0 -46 9 -66 20 -21 11 -43 20 -50 20 -6 0 -13 5 -15 10 -2 6 -21
13 -43 17 -22 3 -46 12 -53 20 -7 7 -27 13 -43 13 -17 0 -37 7 -45 15 -9 8
-28 15 -43 15 -16 0 -34 7 -41 15 -8 10 -31 15 -67 15 -35 0 -60 5 -69 15 -20
20 -93 20 -100 0 -3 -8 1 -24 10 -37 9 -12 16 -35 16 -50 0 -20 13 -42 45 -74
25 -24 45 -48 45 -52 0 -8 37 -42 45 -42 3 0 36 -32 73 -72 37 -39 82 -86 100
-104 17 -18 32 -36 32 -41 0 -4 15 -25 33 -45 17 -20 39 -46 47 -58 8 -13 20
-28 25 -34 6 -6 22 -27 35 -46 13 -19 27 -37 30 -40 11 -10 47 -66 53 -82 3
-10 11 -18 17 -18 5 0 10 -8 10 -19 0 -10 7 -24 15 -31 8 -7 15 -21 15 -31 0
-9 7 -24 15 -33 8 -8 15 -20 15 -26 0 -12 41 -92 52 -100 3 -3 9 -23 13 -45 4
-22 21 -58 36 -79 16 -22 29 -50 29 -62 0 -13 4 -25 9 -28 5 -3 12 -27 16 -53
4 -27 13 -55 20 -63 7 -8 15 -42 17 -74 3 -33 10 -62 16 -64 7 -2 12 -25 12
-55 0 -33 6 -57 17 -69 13 -15 17 -41 19 -121 1 -56 7 -122 13 -146 16 -58 20
-503 5 -522 -6 -8 -14 -69 -17 -136 -4 -89 -9 -128 -21 -145 -9 -12 -16 -43
-16 -68 0 -25 -7 -54 -15 -64 -8 -11 -15 -37 -15 -58 0 -35 -13 -74 -46 -141
-8 -16 -14 -39 -14 -52 0 -12 -6 -27 -13 -33 -7 -6 -23 -42 -37 -81 -13 -39
-27 -71 -31 -71 -4 0 -10 -14 -14 -30 -4 -17 -10 -30 -15 -30 -5 0 -11 -13
-15 -29 -3 -16 -13 -35 -21 -42 -8 -6 -14 -18 -14 -25 0 -8 -4 -14 -10 -14 -5
0 -12 -11 -16 -24 -3 -14 -12 -27 -20 -30 -8 -3 -14 -14 -14 -24 0 -11 -7 -25
-15 -32 -8 -7 -15 -17 -15 -22 0 -9 -35 -62 -57 -86 -7 -7 -13 -19 -13 -27 0
-7 -7 -15 -15 -19 -8 -3 -15 -12 -15 -21 0 -8 -7 -15 -15 -15 -9 0 -31 -16
-51 -35 -19 -19 -43 -35 -53 -35 -10 0 -24 -7 -31 -15 -10 -12 -69 -14 -367
-15 -196 0 -367 -3 -380 -6 -17 -5 -23 -2 -23 9 0 17 77 120 129 174 17 17 31
34 31 37 0 3 16 22 36 43 20 20 43 48 52 62 18 29 23 35 52 70 11 13 20 29 20
35 0 6 13 25 28 42 15 18 36 49 47 70 11 22 26 43 33 47 6 4 12 19 12 31 0 13
7 26 15 30 8 3 15 14 15 25 0 22 39 104 52 109 4 2 8 11 8 20 1 10 9 35 20 57
11 22 19 48 20 58 0 10 7 25 15 33 8 9 15 29 15 45 0 16 4 29 9 29 6 0 13 21
16 48 3 26 13 59 21 74 8 14 14 41 14 60 0 18 7 58 15 88 8 30 15 71 15 91 0
20 7 69 16 109 13 54 14 77 6 95 -8 17 -8 39 0 78 9 43 9 67 -2 110 -7 31 -10
73 -7 94 4 23 -1 65 -11 108 -10 39 -15 83 -12 100 3 17 0 47 -7 69 -7 21 -13
58 -13 81 0 26 -6 48 -15 55 -8 7 -15 27 -15 44 -1 17 -7 42 -15 56 -8 14 -14
42 -15 62 0 20 -7 43 -15 52 -8 8 -15 23 -15 33 0 10 -7 31 -15 47 -8 15 -15
39 -15 52 0 14 -7 27 -15 30 -8 4 -15 13 -15 21 0 19 -42 107 -52 111 -5 2 -8
9 -8 15 0 16 -41 98 -59 118 -34 37 -41 49 -41 64 0 9 -7 18 -15 21 -8 4 -15
11 -15 16 0 10 -56 83 -100 130 -14 14 -32 35 -40 46 -34 44 -102 112 -181
182 -46 40 -85 77 -87 82 -2 4 -10 8 -18 8 -8 0 -17 7 -20 15 -3 8 -15 17 -25
20 -11 4 -32 18 -47 32 -15 14 -36 29 -47 34 -32 14 -59 33 -68 47 -4 6 -17
12 -28 12 -11 0 -22 7 -25 15 -4 9 -19 15 -35 15 -16 0 -29 4 -29 9 0 5 -26
21 -57 37 -32 16 -62 34 -66 41 -4 7 -19 13 -33 13 -14 0 -32 7 -40 15 -9 8
-26 15 -38 15 -13 0 -29 7 -36 15 -7 8 -20 15 -30 15 -10 0 -23 7 -30 15 -7 8
-27 15 -45 15 -18 0 -38 7 -45 15 -7 8 -27 15 -45 15 -20 0 -35 6 -39 15 -4
10 -20 15 -50 15 -28 0 -46 5 -49 14 -3 7 -21 16 -41 20 -19 4 -48 13 -63 21
-15 8 -46 15 -68 15 -22 0 -49 7 -59 15 -11 8 -39 15 -62 15 -23 0 -44 5 -46
12 -2 6 -31 13 -66 16 -74 5 -129 30 -124 55 2 9 10 17 17 17 8 0 18 6 22 13
11 16 95 57 119 57 10 0 28 7 38 15 11 8 28 15 38 15 10 0 21 7 24 15 4 8 14
15 24 15 11 0 22 5 25 11 4 5 17 15 28 20 55 25 267 168 267 180 0 5 9 9 21 9
12 0 47 26 83 63 35 34 99 96 142 138 43 42 93 96 109 120 17 24 33 46 38 47
4 2 7 10 7 18 0 7 16 29 35 48 19 20 35 42 35 51 0 8 4 15 9 15 5 0 14 12 20
28 6 15 15 35 21 45 26 45 30 53 35 65 13 32 16 39 34 67 10 17 21 46 25 66 3
20 19 49 33 65 23 24 27 39 28 89 2 60 38 200 56 210 5 4 9 50 10 103 0 90 4
121 27 243 5 26 5 55 1 66 -15 40 -21 90 -26 211 -3 67 -9 122 -13 122 -4 0
-10 29 -12 65 -3 36 -10 71 -16 78 -18 21 -42 100 -42 138 0 21 -8 47 -20 62
-11 14 -20 30 -20 35 0 5 -7 15 -15 22 -8 7 -15 27 -15 46 0 18 -6 39 -12 46
-21 22 -48 78 -48 98 0 10 -7 20 -15 24 -8 3 -15 14 -15 25 0 11 -6 26 -12 33
-7 7 -31 48 -53 91 -22 43 -52 91 -66 107 -14 15 -29 35 -32 44 -4 9 -11 16
-17 16 -5 0 -10 7 -10 15 0 12 -45 82 -85 133 -30 37 -273 282 -281 282 -5 1
-20 14 -34 30 -13 17 -29 30 -35 30 -5 0 -23 13 -40 28 -16 16 -51 41 -77 56
-27 15 -48 32 -48 37 0 5 -6 9 -14 9 -7 0 -19 7 -26 15 -7 8 -20 15 -30 15
-10 0 -20 7 -24 15 -3 8 -16 15 -30 15 -13 0 -26 7 -30 15 -3 8 -14 15 -25 15
-11 0 -34 13 -52 29 -18 17 -49 33 -71 36 -21 4 -38 10 -38 15 0 4 -12 11 -26
14 -15 4 -33 14 -41 21 -8 8 -23 15 -34 15 -11 0 -27 7 -35 15 -9 8 -30 15
-49 15 -20 0 -35 6 -39 15 -3 9 -18 15 -35 15 -16 0 -31 5 -33 12 -2 6 -30 13
-61 16 -31 2 -62 11 -68 18 -6 8 -29 14 -50 14 -21 0 -58 6 -81 14 -24 8 -63
17 -88 21 -25 4 -50 11 -55 16 -6 4 -52 10 -103 13 -51 3 -113 12 -138 21 -30
10 -83 15 -157 15 -77 0 -117 4 -125 13 -10 9 -114 12 -445 13 -238 0 -475 -1
-526 -3z m562 -715 c13 -7 78 -14 162 -16 89 -2 155 -9 180 -18 22 -8 76 -19
120 -24 105 -11 135 -19 164 -41 13 -11 40 -19 61 -19 22 0 60 -12 93 -30 31
-16 67 -30 79 -30 13 0 32 -7 42 -15 11 -8 30 -15 42 -15 12 0 27 -7 34 -15 7
-8 23 -15 37 -15 13 0 26 -7 29 -15 4 -8 12 -15 20 -15 8 0 14 -4 14 -10 0 -5
15 -16 33 -24 17 -7 70 -39 115 -70 46 -31 85 -56 88 -56 2 0 16 -12 32 -27
16 -16 55 -50 86 -78 90 -79 98 -87 146 -145 25 -30 47 -57 51 -60 3 -3 26
-38 50 -78 24 -40 52 -85 61 -100 10 -15 22 -37 27 -49 5 -11 15 -24 20 -28 6
-3 11 -17 11 -30 0 -13 6 -30 14 -37 7 -8 17 -29 21 -46 3 -18 10 -32 15 -32
4 0 10 -36 12 -80 2 -45 8 -84 14 -88 6 -4 19 -32 28 -64 13 -46 16 -108 16
-357 0 -194 -4 -301 -10 -301 -5 0 -10 -8 -10 -18 0 -10 -9 -25 -20 -35 -16
-13 -20 -29 -20 -78 0 -40 -5 -65 -15 -75 -8 -9 -15 -24 -15 -34 0 -10 -7 -20
-15 -24 -8 -3 -15 -17 -15 -30 0 -24 -35 -105 -51 -116 -3 -3 -10 -16 -14 -29
-12 -41 -100 -179 -143 -227 -23 -25 -42 -48 -42 -50 0 -7 -100 -104 -107
-104 -4 0 -25 -19 -48 -42 -45 -47 -99 -88 -114 -88 -5 0 -11 -4 -13 -8 -1 -4
-24 -20 -50 -35 -27 -15 -48 -32 -48 -37 0 -6 -9 -10 -19 -10 -10 0 -21 -7
-25 -15 -3 -8 -14 -15 -24 -15 -11 0 -25 -7 -32 -15 -7 -8 -20 -15 -30 -15
-10 0 -23 -7 -30 -15 -7 -8 -21 -15 -32 -15 -11 0 -32 -6 -46 -14 -68 -35
-125 -56 -150 -56 -15 0 -36 -7 -46 -15 -11 -8 -27 -15 -37 -15 -9 0 -19 -7
-23 -15 -4 -11 -23 -15 -79 -15 -54 0 -78 -4 -87 -15 -7 -8 -24 -15 -39 -15
-14 -1 -53 -7 -86 -15 -33 -8 -106 -15 -162 -15 -77 0 -105 -4 -117 -15 -13
-13 -89 -15 -564 -15 -476 0 -551 2 -562 15 -7 8 -19 15 -27 15 -12 0 -14 124
-9 933 5 904 6 965 18 997 6 15 21 177 20 215 -1 11 3 22 8 25 6 4 13 112 16
246 5 177 10 244 20 259 8 11 14 34 14 52 0 18 4 33 9 33 5 0 12 63 16 139 6
104 11 141 21 145 8 3 14 17 14 31 0 24 26 69 60 104 33 35 172 121 194 121
13 0 29 7 36 15 10 11 35 15 110 15 75 0 100 4 110 15 10 12 45 15 192 15 121
0 186 -4 201 -12z m-20 -4073 c30 -12 101 -15 416 -15 209 0 382 -4 385 -9 3
-4 64 -12 136 -16 99 -5 133 -10 137 -21 4 -11 31 -14 122 -14 86 0 124 -4
146 -16 17 -9 55 -18 85 -21 30 -3 70 -12 88 -20 19 -8 36 -12 40 -9 3 3 13
-1 23 -10 10 -9 40 -19 66 -22 26 -3 54 -11 61 -19 7 -7 25 -13 38 -13 14 0
32 -7 40 -15 9 -8 26 -15 39 -15 12 0 25 -7 29 -15 3 -8 16 -15 29 -15 14 0
30 -7 37 -15 7 -8 21 -15 31 -15 20 0 138 -58 154 -76 6 -6 26 -21 45 -34 19
-13 48 -37 65 -52 16 -16 46 -36 67 -46 21 -9 38 -23 38 -29 0 -7 5 -13 10
-13 6 0 32 -23 58 -52 26 -28 62 -67 81 -87 18 -20 51 -62 74 -93 22 -32 44
-58 48 -58 5 0 9 -11 9 -25 0 -13 6 -28 13 -32 14 -9 25 -27 64 -103 15 -30
31 -57 34 -60 3 -3 9 -23 13 -44 4 -21 14 -45 22 -53 8 -8 14 -25 14 -38 0
-13 7 -31 15 -39 11 -11 14 -26 10 -49 -5 -24 -1 -39 14 -59 15 -18 21 -41 21
-76 0 -32 5 -54 15 -62 11 -9 15 -33 15 -85 0 -44 7 -90 17 -116 23 -60 23
-336 -1 -424 -9 -32 -16 -85 -16 -117 0 -32 -4 -58 -10 -58 -5 0 -13 -18 -16
-39 -4 -22 -13 -42 -20 -45 -10 -4 -14 -23 -14 -59 0 -36 -5 -59 -15 -67 -8
-7 -15 -18 -15 -26 0 -7 -13 -28 -30 -47 -19 -23 -26 -37 -19 -44 10 -10 -16
-74 -33 -81 -4 -2 -18 -24 -30 -50 -13 -26 -27 -52 -33 -58 -5 -6 -17 -22 -25
-34 -8 -13 -23 -32 -32 -42 -10 -10 -18 -23 -18 -28 0 -5 -4 -10 -8 -10 -5 0
-23 -19 -40 -42 -17 -24 -49 -63 -71 -88 -23 -25 -41 -48 -41 -52 0 -5 -7 -8
-15 -8 -8 0 -15 -4 -15 -10 0 -5 -13 -16 -30 -25 -16 -8 -47 -32 -68 -53 -43
-40 -80 -69 -120 -92 -15 -8 -31 -20 -37 -27 -5 -6 -29 -21 -52 -33 -24 -12
-43 -26 -43 -31 0 -5 -11 -9 -24 -9 -13 0 -29 -7 -36 -15 -7 -8 -23 -15 -36
-15 -12 0 -29 -6 -36 -13 -18 -18 -72 -44 -108 -52 -16 -4 -30 -10 -30 -15 0
-4 -18 -11 -39 -15 -22 -4 -45 -13 -52 -21 -6 -8 -28 -14 -49 -14 -21 0 -43
-7 -50 -15 -7 -9 -29 -15 -52 -15 -25 0 -41 -5 -44 -15 -5 -11 -23 -15 -78
-15 -44 0 -79 -5 -91 -14 -18 -12 -52 -22 -95 -29 -9 -2 -21 -7 -29 -11 -20
-13 -1150 -9 -1165 3 -7 6 -39 13 -72 17 -32 4 -68 13 -79 20 -11 8 -46 14
-82 14 -39 0 -65 5 -70 13 -8 11 -99 47 -121 47 -6 0 -30 13 -54 29 -24 15
-63 39 -87 52 -51 28 -111 84 -111 104 0 7 -6 20 -13 27 -32 32 -85 116 -89
143 -3 17 -16 55 -28 85 -15 35 -25 87 -30 145 -3 50 -11 106 -17 125 -28 87
-35 135 -43 274 -5 82 -12 152 -17 155 -4 3 -15 22 -25 41 -12 27 -18 77 -22
218 -3 100 -10 190 -15 200 -6 9 -18 44 -28 77 -17 56 -18 120 -18 945 0 871
0 885 20 907 20 21 21 21 501 22 407 1 487 -1 517 -14z"/>
<path d="M12088 10804 c-22 -22 5 -64 51 -79 12 -3 34 -18 48 -31 15 -13 37
-27 49 -30 12 -3 25 -12 28 -20 3 -8 12 -14 20 -14 7 0 16 -7 20 -15 3 -8 14
-15 25 -15 11 0 35 -15 54 -34 19 -18 47 -42 63 -52 72 -47 311 -288 368 -373
17 -23 40 -52 53 -64 12 -12 23 -29 23 -37 0 -9 14 -30 30 -48 17 -18 30 -39
30 -47 0 -14 39 -86 51 -95 4 -3 10 -23 14 -45 5 -22 21 -56 36 -76 16 -20 29
-48 29 -62 0 -14 7 -32 15 -41 8 -8 15 -28 15 -44 0 -16 6 -35 14 -41 7 -6 16
-34 19 -63 4 -28 10 -54 15 -57 5 -3 12 -24 15 -45 4 -22 10 -42 15 -45 5 -3
12 -33 16 -65 4 -33 10 -64 15 -70 5 -6 11 -42 15 -81 4 -38 11 -74 15 -80 5
-5 8 -17 9 -25 0 -8 6 -44 12 -80 16 -85 25 -524 11 -570 -5 -19 -14 -62 -20
-95 -28 -156 -36 -190 -43 -196 -4 -3 -11 -27 -15 -54 -3 -28 -12 -56 -20 -63
-7 -7 -13 -22 -13 -33 0 -11 -7 -27 -15 -35 -8 -9 -15 -30 -15 -49 0 -20 -6
-35 -15 -39 -9 -3 -15 -18 -15 -34 0 -16 -7 -35 -15 -42 -8 -7 -15 -21 -15
-30 0 -10 -4 -20 -8 -22 -16 -6 -52 -67 -52 -87 0 -11 -6 -24 -14 -28 -8 -4
-25 -26 -38 -48 -51 -86 -91 -145 -99 -145 -5 0 -9 -6 -9 -14 0 -8 -7 -16 -15
-20 -8 -3 -15 -11 -15 -19 0 -7 -21 -36 -47 -64 -27 -29 -55 -60 -63 -71 -35
-46 -77 -89 -92 -94 -19 -8 -29 -53 -15 -67 16 -16 83 -13 99 3 8 7 35 16 61
20 26 4 47 11 47 17 0 5 22 9 50 9 45 0 69 7 155 46 17 7 42 16 57 20 15 3 32
12 39 20 6 8 21 14 32 14 23 0 104 37 113 51 3 5 14 9 25 9 11 0 22 7 25 15 4
8 17 15 30 15 12 0 27 6 31 14 4 8 27 24 51 36 23 12 42 26 42 30 0 4 19 18
43 30 23 12 54 35 69 51 15 16 33 29 41 29 7 0 37 21 65 48 28 26 83 76 122
110 38 35 70 68 70 73 0 10 37 49 46 49 3 0 20 17 37 37 18 20 39 44 49 54 9
9 19 27 23 39 4 11 20 34 36 51 16 16 29 35 29 42 0 7 11 24 25 39 14 15 30
38 35 50 11 26 32 60 41 68 3 3 19 30 35 60 16 30 32 57 35 60 3 3 9 23 12 44
4 22 11 42 16 45 5 4 13 20 17 36 4 17 12 33 17 36 5 4 12 31 14 60 3 30 11
68 19 86 8 17 14 49 14 70 0 22 7 48 15 59 21 27 21 328 0 364 -8 14 -14 50
-15 80 0 31 -6 64 -14 75 -7 11 -15 48 -18 83 -2 35 -9 67 -15 70 -6 4 -14 22
-18 40 -3 17 -10 32 -15 32 -4 0 -11 17 -15 37 -4 20 -13 46 -21 57 -8 11 -14
26 -14 32 0 16 -71 124 -81 124 -5 0 -9 10 -9 23 0 12 -14 35 -30 51 -17 16
-30 33 -30 38 0 11 -34 60 -75 107 -78 91 -339 341 -356 341 -5 0 -9 4 -9 9 0
5 -9 12 -19 16 -11 3 -37 21 -58 40 -21 19 -46 35 -55 35 -9 0 -20 5 -23 11
-4 5 -17 14 -28 20 -33 14 -61 33 -70 47 -4 6 -19 12 -31 12 -13 0 -26 7 -30
15 -3 8 -12 15 -19 15 -8 0 -20 7 -27 15 -7 8 -20 15 -30 15 -10 0 -23 6 -29
14 -7 8 -25 17 -40 21 -15 3 -54 19 -87 35 -32 17 -69 30 -81 30 -13 0 -23 4
-23 9 0 5 -14 13 -32 16 -17 4 -38 14 -46 21 -7 8 -28 14 -47 14 -20 0 -35 6
-39 15 -4 11 -20 15 -54 15 -32 0 -54 5 -62 15 -7 8 -22 15 -34 15 -11 0 -30
7 -40 15 -11 8 -41 15 -68 15 -26 0 -70 9 -98 20 -37 15 -74 20 -140 20 -50 0
-90 4 -90 9 0 5 -15 13 -32 16 -18 4 -36 12 -39 17 -8 13 -91 23 -101 12z"/>
<path d="M16097 6863 c-15 -4 -17 -13 -15 -56 3 -45 6 -52 26 -55 21 -3 22 0
22 57 0 34 -3 60 -7 60 -5 -1 -16 -3 -26 -6z"/>
<path d="M16110 2793 c-23 -9 -30 -24 -30 -70 0 -39 2 -43 25 -43 24 0 25 3
25 60 0 33 -1 60 -2 59 -2 0 -10 -3 -18 -6z"/>
<path d="M5654 1541 c-92 -4 -156 -11 -165 -18 -13 -10 -197 -23 -331 -23 -53
0 -156 -24 -172 -40 -6 -6 -77 -10 -172 -10 -131 0 -165 -3 -178 -15 -10 -11
-38 -15 -98 -15 -46 -1 -103 -5 -128 -11 -25 -5 -75 -13 -112 -17 -37 -4 -73
-13 -80 -20 -8 -8 -51 -12 -133 -12 -87 0 -128 -4 -149 -15 -15 -8 -58 -18
-95 -21 -36 -3 -71 -10 -77 -15 -6 -5 -63 -12 -125 -15 -63 -3 -123 -11 -133
-16 -11 -6 -71 -13 -134 -16 -68 -3 -118 -10 -125 -17 -7 -6 -47 -14 -90 -18
-43 -3 -84 -10 -90 -15 -7 -6 -59 -12 -116 -14 -72 -2 -106 -7 -109 -15 -2 -9
-25 -13 -67 -13 -35 0 -76 -5 -92 -12 -15 -6 -53 -13 -83 -15 -90 -6 -139 -14
-145 -24 -4 -5 -41 -9 -84 -9 -43 0 -93 -3 -110 -6 l-31 -6 0 -116 0 -115 92
7 c50 4 99 11 109 16 10 6 45 10 79 10 34 0 71 6 83 12 12 7 71 15 130 18 62
3 111 10 115 16 4 6 53 13 115 17 59 2 113 9 120 15 6 5 47 12 89 14 43 3 83
10 90 15 7 6 60 13 118 15 58 3 114 9 125 15 11 6 55 14 99 17 43 4 87 11 97
17 11 5 68 12 126 15 63 3 118 11 135 20 17 9 58 14 110 14 46 0 99 4 118 10
19 5 73 14 119 20 47 5 89 14 95 20 6 6 69 10 148 10 107 0 139 3 145 14 6 10
38 15 124 17 66 2 122 9 130 15 8 7 57 14 110 16 54 2 103 9 110 15 9 6 110
13 264 18 165 4 255 11 264 18 20 17 884 14 925 -2 16 -6 113 -14 215 -18 131
-4 192 -10 206 -19 11 -8 46 -14 85 -14 36 0 71 -5 77 -11 6 -6 51 -14 99 -17
54 -3 94 -10 102 -19 9 -9 39 -13 91 -13 58 0 82 -4 91 -15 7 -8 24 -15 39
-15 14 -1 37 -7 51 -15 14 -8 52 -14 86 -15 40 0 66 -5 73 -14 6 -8 36 -17 67
-21 30 -3 67 -13 82 -21 15 -7 36 -14 47 -14 11 -1 31 -7 45 -15 14 -8 35 -14
46 -15 12 0 27 -7 34 -15 7 -8 26 -15 42 -15 16 0 36 -7 44 -15 9 -9 34 -15
58 -15 27 0 48 -6 56 -15 7 -8 23 -15 37 -15 13 0 31 -7 39 -15 9 -8 26 -15
38 -15 13 0 29 -7 36 -15 7 -8 22 -15 35 -15 12 0 32 -9 45 -20 13 -11 29 -20
35 -20 7 0 26 -7 41 -15 16 -8 39 -15 50 -15 12 0 24 -7 28 -15 3 -9 18 -15
35 -15 16 0 31 -6 35 -15 3 -8 15 -15 26 -15 12 0 28 -7 36 -15 9 -8 24 -15
34 -15 10 0 20 -7 24 -15 3 -8 17 -15 31 -15 14 0 25 -4 25 -9 0 -5 28 -23 63
-39 34 -17 77 -42 96 -56 19 -14 40 -26 47 -26 6 0 17 -7 24 -15 7 -8 21 -15
31 -15 10 0 22 -7 27 -16 6 -12 23 -14 73 -12 l64 3 3 43 c3 36 -1 48 -23 68
-14 13 -30 24 -35 24 -5 0 -32 23 -60 50 -28 28 -56 50 -61 50 -5 0 -12 6 -15
14 -3 8 -13 17 -22 20 -24 8 -51 27 -81 56 -14 14 -38 31 -53 37 -16 7 -28 17
-28 22 0 5 -8 11 -17 15 -25 8 -57 29 -66 44 -4 6 -14 12 -21 12 -8 0 -16 7
-20 15 -3 8 -16 15 -30 15 -13 0 -26 7 -30 15 -3 8 -12 15 -19 15 -8 0 -32 12
-53 28 -21 15 -79 47 -127 71 -48 25 -90 48 -93 53 -3 4 -13 8 -23 8 -10 0
-24 7 -31 15 -7 8 -23 15 -35 15 -12 0 -28 7 -35 15 -7 8 -28 15 -47 15 -21 0
-36 6 -39 15 -4 8 -18 15 -34 15 -15 0 -33 7 -40 15 -7 9 -29 15 -55 15 -24 0
-48 6 -54 14 -7 8 -27 17 -46 20 -19 4 -47 13 -62 21 -15 8 -46 15 -68 15 -22
0 -49 7 -59 15 -11 8 -34 15 -51 15 -17 0 -35 4 -41 10 -5 5 -46 13 -89 16
-51 5 -83 12 -88 20 -6 10 -34 14 -105 14 -64 0 -102 4 -110 12 -7 7 -41 16
-75 20 -34 4 -84 11 -112 17 -27 5 -91 10 -141 10 -64 1 -101 6 -125 18 -31
15 -90 17 -609 18 -316 1 -643 -1 -726 -4z"/>
<path d="M12839 1541 c-87 -4 -152 -11 -160 -18 -8 -6 -68 -13 -144 -16 -146
-6 -191 -10 -201 -20 -4 -3 -21 0 -40 8 -28 12 -34 11 -45 -1 -6 -8 -19 -14
-28 -14 -9 0 -26 -6 -36 -14 -13 -9 -56 -15 -118 -17 -57 -3 -101 -9 -105 -15
-4 -6 -43 -14 -87 -16 -46 -3 -81 -10 -83 -17 -2 -6 -21 -11 -42 -11 -24 0
-42 -6 -47 -15 -6 -10 -26 -16 -63 -16 -32 -1 -69 -9 -90 -20 -19 -11 -42 -19
-51 -19 -9 0 -30 -7 -45 -15 -16 -8 -38 -15 -50 -15 -11 0 -29 -7 -40 -15 -10
-8 -31 -15 -45 -15 -15 0 -32 -7 -39 -15 -7 -8 -25 -15 -40 -15 -15 0 -33 -7
-40 -15 -7 -8 -21 -15 -31 -15 -11 0 -49 -15 -87 -34 -37 -19 -98 -49 -137
-67 -38 -18 -82 -45 -97 -61 -15 -15 -36 -28 -48 -28 -11 0 -23 -7 -26 -15 -4
-8 -15 -15 -25 -15 -10 0 -19 -7 -19 -15 0 -8 -8 -15 -17 -15 -10 0 -36 -16
-58 -36 -22 -20 -64 -52 -93 -71 -29 -19 -60 -45 -70 -57 -9 -13 -24 -25 -31
-27 -25 -9 -158 -133 -182 -171 -13 -21 -27 -38 -30 -38 -9 0 -79 -70 -79 -78
0 -4 -20 -29 -45 -57 -47 -52 -58 -91 -29 -102 11 -4 23 3 37 21 10 15 36 35
57 46 21 11 44 25 52 32 21 19 50 37 81 49 15 6 27 15 27 20 0 5 9 9 19 9 11
0 26 7 35 15 8 8 21 15 29 15 12 0 26 9 74 50 7 5 17 10 23 10 5 0 18 8 28 17
23 22 50 40 80 53 12 5 22 14 22 20 0 5 11 10 24 10 13 0 29 7 36 15 7 8 23
15 37 15 13 0 26 7 29 15 4 8 17 15 30 15 14 0 27 7 30 15 4 8 18 15 34 15 15
0 33 7 40 15 7 8 18 15 24 15 6 0 23 6 37 14 14 7 38 16 53 20 16 4 35 14 43
21 8 8 27 15 42 15 16 0 34 7 41 15 7 8 23 15 35 15 12 0 28 7 35 15 7 9 29
15 52 15 25 0 41 5 44 15 4 9 19 15 39 15 19 0 40 6 47 14 8 7 29 16 48 18 39
6 90 23 133 44 16 8 41 14 57 14 15 0 33 6 39 14 7 8 35 17 64 21 29 4 57 11
62 15 6 4 35 11 65 15 66 8 155 32 192 51 16 9 58 14 111 14 63 0 88 4 97 15
9 11 32 15 79 15 44 0 74 5 87 15 12 9 44 14 91 15 47 0 76 5 86 14 10 10 46
14 133 16 112 1 195 8 374 28 116 14 925 9 942 -5 9 -8 96 -15 253 -19 179 -5
243 -11 253 -21 9 -9 42 -13 106 -13 59 0 96 -4 104 -12 8 -8 53 -14 120 -16
65 -3 110 -9 114 -16 5 -7 61 -13 155 -16 96 -4 157 -11 173 -19 13 -8 49 -14
80 -13 30 0 64 -6 75 -13 11 -6 65 -15 120 -19 54 -4 106 -11 115 -16 9 -5 61
-11 116 -13 55 -2 110 -9 121 -15 11 -6 50 -14 87 -18 l66 -7 0 120 0 120 -62
7 c-34 4 -69 11 -78 16 -8 4 -47 10 -85 13 -39 3 -84 13 -100 21 -22 12 -61
16 -143 16 -87 0 -117 3 -128 15 -10 10 -35 15 -72 15 -31 1 -84 7 -117 15
-33 8 -88 15 -121 15 -42 0 -65 5 -74 15 -10 12 -43 15 -175 15 -107 0 -165 4
-167 11 -2 5 -24 13 -48 16 -25 3 -50 9 -55 14 -6 4 -46 8 -90 9 -251 4 -381
12 -396 26 -13 12 -115 15 -625 18 -335 1 -675 0 -755 -3z"/>
<path d="M6484 1217 c-10 -28 6 -37 64 -37 34 -1 65 -7 76 -15 11 -8 27 -15
37 -15 9 0 22 -7 29 -15 7 -9 29 -15 53 -15 22 0 48 -7 57 -15 9 -8 38 -15 66
-16 28 -1 62 -10 80 -20 17 -11 45 -19 61 -19 16 0 34 -5 39 -10 6 -6 34 -13
62 -17 29 -3 57 -12 63 -19 6 -8 29 -14 49 -14 21 0 40 -5 42 -11 2 -5 24 -13
48 -16 25 -3 52 -11 60 -18 8 -7 22 -15 30 -18 8 -3 -6 -6 -31 -6 -30 -1 -51
4 -59 14 -8 10 -31 15 -71 15 -32 0 -84 7 -116 15 -31 8 -91 15 -133 15 -50 1
-81 6 -94 15 -16 12 -63 15 -247 15 -171 0 -236 3 -267 14 -30 11 -100 15
-264 17 -123 1 -233 6 -244 10 -26 9 -44 -6 -44 -37 0 -12 -8 -31 -17 -43 -18
-21 -23 -21 -579 -23 -399 -2 -565 -6 -575 -14 -9 -8 -105 -13 -287 -16 -172
-3 -276 -8 -280 -15 -4 -5 -47 -13 -96 -17 -50 -4 -98 -12 -107 -17 -10 -5
-77 -9 -149 -9 -87 0 -141 -4 -163 -14 -47 -19 -107 -26 -229 -27 -79 -1 -110
-5 -119 -15 -7 -8 -31 -14 -58 -14 -25 -1 -57 -7 -71 -15 -17 -10 -58 -14
-133 -15 -86 0 -109 -3 -113 -15 -5 -12 -25 -15 -93 -15 -57 0 -93 -5 -106
-14 -11 -7 -51 -16 -90 -19 -38 -3 -71 -10 -73 -16 -2 -7 -37 -11 -92 -11 -65
0 -92 -4 -104 -15 -8 -8 -26 -15 -40 -15 -26 0 -26 -1 -26 -76 l0 -76 83 7
c45 4 84 11 85 16 2 5 56 9 121 9 72 0 139 6 174 15 35 9 103 15 173 15 78 0
124 4 142 14 17 9 81 16 177 20 83 4 215 13 295 21 80 8 179 15 220 15 41 0
91 5 110 11 19 6 141 13 270 16 186 4 240 8 259 20 21 13 154 16 1066 17 980
1 1044 0 1062 -16 11 -10 25 -18 31 -18 6 0 13 -9 17 -19 10 -33 32 -43 111
-47 44 -3 86 -11 98 -20 12 -8 44 -14 81 -14 34 0 66 -5 72 -11 6 -6 57 -13
114 -16 59 -3 107 -11 111 -17 4 -6 45 -12 95 -14 48 -2 102 -10 120 -18 17
-8 60 -14 95 -14 39 -1 70 -6 82 -15 12 -9 42 -15 72 -15 28 0 74 -6 100 -14
27 -8 87 -19 134 -25 47 -5 126 -17 175 -26 50 -9 128 -22 175 -29 47 -7 98
-18 113 -24 16 -7 64 -12 107 -12 48 0 80 -4 82 -11 2 -6 35 -13 73 -16 39 -3
73 -11 77 -17 4 -7 52 -12 120 -14 69 -3 116 -8 120 -15 7 -11 106 -27 165
-27 17 0 34 -4 38 -10 3 -5 19 -10 36 -10 16 0 29 -4 29 -10 0 -15 39 -32 60
-25 29 9 27 55 -1 55 -12 0 -38 14 -59 30 -21 17 -43 30 -48 30 -6 0 -24 12
-39 26 -15 14 -37 30 -48 34 -11 4 -71 42 -134 84 -62 42 -120 76 -127 76 -8
0 -17 7 -20 15 -4 8 -14 15 -24 15 -10 0 -25 6 -32 13 -7 8 -26 17 -41 21 -15
3 -27 10 -27 15 0 5 -15 12 -32 16 -52 11 -108 38 -108 52 0 7 7 13 15 13 8 0
15 -4 15 -10 0 -5 19 -10 42 -10 23 0 49 -6 57 -14 9 -8 31 -17 50 -19 19 -3
37 -11 41 -17 4 -6 27 -14 51 -17 24 -3 58 -11 76 -19 17 -8 45 -14 62 -14 17
0 31 -4 31 -9 0 -5 15 -13 33 -16 17 -4 39 -13 47 -20 8 -7 34 -15 56 -18 38
-4 41 -3 36 17 -6 24 -50 65 -71 66 -7 0 -30 13 -50 29 -20 15 -46 31 -58 35
-13 4 -23 12 -23 17 0 5 -8 9 -18 9 -9 0 -41 16 -71 35 -29 19 -55 35 -58 35
-3 0 -25 14 -50 30 -24 17 -52 30 -62 30 -10 0 -24 7 -31 15 -7 8 -26 15 -42
15 -16 0 -31 6 -34 15 -4 8 -11 15 -18 15 -6 1 -29 9 -51 20 -22 11 -47 20
-55 20 -8 0 -24 7 -34 15 -11 8 -27 15 -37 15 -9 0 -22 7 -29 15 -7 8 -26 15
-42 15 -16 0 -36 7 -44 15 -9 8 -28 15 -44 15 -16 0 -30 7 -34 15 -4 10 -19
15 -49 15 -27 0 -49 6 -57 15 -7 8 -27 15 -44 15 -18 0 -41 7 -52 15 -11 8
-42 14 -74 15 -31 0 -64 6 -75 14 -11 7 -39 16 -61 19 -23 4 -54 14 -70 22
-17 8 -55 15 -90 15 -35 0 -74 6 -90 15 -16 8 -52 15 -80 15 -29 0 -65 7 -80
15 -19 10 -58 15 -116 15 -52 0 -88 4 -90 11 -2 6 -68 13 -178 16 -107 4 -178
10 -182 17 -4 5 -52 12 -107 14 -85 4 -102 2 -107 -11z"/>
<path d="M13092 1208 c-4 -4 -122 -8 -262 -8 -197 -1 -258 -4 -270 -14 -9 -9
-50 -15 -108 -18 -52 -2 -97 -9 -104 -16 -7 -7 -40 -12 -75 -12 -47 0 -65 -4
-69 -15 -5 -11 -22 -15 -65 -15 -33 0 -75 -6 -93 -14 -18 -7 -51 -17 -74 -21
-22 -3 -46 -13 -53 -21 -7 -9 -31 -14 -63 -14 -29 0 -59 -7 -70 -15 -11 -8
-34 -15 -52 -15 -19 0 -34 -6 -38 -15 -3 -10 -19 -15 -46 -15 -27 0 -43 -5
-46 -15 -4 -8 -18 -15 -34 -15 -15 0 -33 -7 -40 -15 -7 -8 -23 -15 -36 -15
-12 0 -29 -7 -38 -15 -8 -8 -23 -15 -33 -15 -10 0 -30 -6 -44 -14 -14 -7 -37
-16 -52 -20 -15 -3 -27 -10 -27 -15 0 -5 -13 -12 -29 -16 -16 -3 -35 -13 -42
-21 -6 -8 -20 -14 -31 -14 -10 0 -21 -7 -24 -15 -4 -8 -18 -15 -34 -15 -15 0
-33 -7 -40 -15 -7 -8 -21 -15 -32 -15 -10 0 -21 -7 -24 -15 -4 -8 -17 -15 -30
-15 -14 0 -27 -7 -30 -15 -4 -8 -17 -15 -30 -15 -14 0 -27 -7 -30 -15 -4 -8
-18 -15 -33 -15 -38 0 -100 -55 -82 -73 10 -9 15 -8 25 6 10 13 21 15 44 11
22 -4 44 0 72 15 22 11 51 21 64 21 13 0 29 7 36 15 7 8 27 15 45 15 18 0 38
7 45 15 9 11 32 15 82 15 52 0 70 4 74 15 5 11 21 15 63 14 31 -1 45 -4 31 -6
-14 -3 -29 -11 -33 -19 -4 -8 -22 -14 -40 -14 -18 -1 -43 -7 -57 -15 -14 -8
-37 -14 -51 -15 -15 0 -32 -7 -39 -15 -7 -8 -20 -15 -29 -15 -9 -1 -34 -9 -56
-20 -22 -11 -46 -19 -53 -20 -12 0 -50 -17 -92 -42 -8 -4 -27 -13 -42 -19 -16
-6 -28 -15 -28 -20 0 -5 -9 -9 -19 -9 -11 0 -26 -6 -33 -14 -8 -7 -24 -17 -36
-20 -12 -4 -22 -12 -22 -17 0 -5 -11 -9 -24 -9 -13 0 -26 -7 -30 -15 -3 -8
-14 -15 -25 -15 -11 0 -26 -6 -33 -13 -7 -8 -26 -17 -41 -21 -37 -9 -35 -40 3
-63 17 -9 30 -22 30 -28 1 -30 100 -85 123 -68 6 6 36 11 66 11 65 1 111 10
111 23 0 5 42 9 93 9 62 0 99 5 112 14 11 7 41 16 68 20 26 4 47 11 47 17 0 5
33 9 73 9 45 0 80 5 92 14 11 7 51 16 90 20 38 4 75 12 82 18 7 5 43 13 80 15
38 3 73 10 79 14 6 5 50 13 98 18 48 5 93 14 99 20 6 6 31 11 57 11 25 0 54 7
64 15 11 8 40 15 64 15 24 0 58 6 75 14 18 8 67 16 110 19 43 2 83 9 90 16 6
6 33 11 60 11 27 0 63 6 80 14 18 8 68 17 111 19 43 3 82 11 86 17 3 5 44 13
90 17 46 3 95 12 110 20 14 7 35 13 46 13 12 0 27 7 34 15 7 8 29 15 50 15 21
0 43 6 49 14 9 11 81 15 351 21 187 4 343 11 346 16 7 13 611 12 616 -1 2 -6
189 -12 498 -16 385 -4 502 -8 525 -19 21 -10 86 -14 225 -16 107 -1 203 -6
212 -10 9 -5 64 -12 122 -17 l106 -8 0 106 c0 104 0 105 -28 119 -19 10 -76
15 -187 18 -88 2 -176 7 -195 13 -19 5 -73 12 -120 16 -47 4 -88 11 -92 17 -4
7 -138 12 -375 15 -256 3 -370 8 -375 16 -5 8 -164 12 -553 14 -476 2 -550 1
-577 -13 -17 -8 -52 -15 -78 -15 -53 0 -60 8 -60 64 0 59 -17 64 -180 60 -80
-2 -152 -7 -160 -11 -28 -12 -64 -15 -292 -19 -180 -4 -229 -8 -239 -20 -7 -9
-30 -14 -63 -14 -30 0 -60 -6 -72 -15 -11 -8 -41 -15 -70 -15 -33 0 -56 -5
-64 -15 -9 -11 -31 -15 -84 -14 l-71 1 54 8 c29 5 58 13 64 19 6 6 28 11 49
11 25 0 41 5 44 15 4 8 18 15 34 15 16 0 30 7 34 15 4 11 21 15 67 15 33 0 75
6 92 13 65 27 163 55 202 56 22 1 50 8 62 16 12 8 44 15 71 15 32 0 54 5 62
15 7 8 29 15 49 15 41 0 55 7 64 33 4 12 15 16 36 15 17 -2 29 2 28 7 -2 11
-104 14 -115 3z m-1514 -445 c-10 -2 -26 -2 -35 0 -10 3 -2 5 17 5 19 0 27 -2
18 -5z m-58 -23 c0 -5 -17 -9 -37 -9 -38 1 -38 1 -8 9 43 11 45 11 45 0z"/>
<path d="M5156 495 c-21 -11 -64 -15 -171 -15 -84 0 -155 -5 -172 -11 -15 -7
-95 -15 -177 -19 -82 -4 -151 -12 -155 -18 -3 -6 -97 -11 -234 -13 -151 -3
-230 -8 -235 -15 -4 -7 -70 -14 -167 -18 -197 -10 -208 -11 -223 -20 -6 -4
-35 -6 -64 -5 -58 2 -130 -10 -138 -22 -3 -4 -106 -11 -228 -15 -167 -5 -225
-10 -233 -21 -9 -10 -49 -13 -168 -13 -86 0 -174 -6 -196 -12 -22 -6 -75 -13
-118 -15 -55 -3 -80 -9 -84 -19 -4 -10 -25 -14 -84 -14 l-79 0 0 -115 c0 -110
4 -127 26 -106 5 5 88 11 185 13 115 2 181 7 190 15 10 8 104 12 314 15 211 2
306 7 321 15 12 7 84 15 174 18 84 3 157 8 162 11 4 3 126 9 269 14 190 6 265
12 276 22 12 10 107 14 417 19 221 4 419 9 441 12 22 4 128 11 235 17 272 16
1813 7 1855 -10 20 -8 127 -14 306 -18 215 -6 280 -10 293 -21 12 -10 54 -15
144 -18 70 -3 140 -8 155 -13 16 -5 93 -12 172 -16 133 -6 145 -6 151 11 4 10
3 23 -2 30 -5 7 -22 34 -39 59 l-30 45 -73 1 c-52 0 -78 4 -88 15 -9 8 -30 15
-48 15 -18 0 -41 7 -52 15 -13 9 -44 14 -94 15 -47 0 -83 5 -95 14 -12 8 -58
15 -115 18 -62 3 -105 11 -125 22 -20 11 -51 16 -93 15 -40 -1 -67 2 -71 10
-5 7 -43 14 -95 16 -55 3 -96 11 -109 20 -16 11 -51 15 -143 15 -86 0 -124 4
-126 12 -3 8 -45 13 -129 16 -83 3 -131 9 -144 18 -14 10 -60 14 -180 14 -125
1 -164 4 -179 15 -30 23 -1087 22 -1130 0z"/>
<path d="M13465 503 c-16 -2 -39 -8 -50 -13 -11 -5 -98 -11 -193 -12 -116 -2
-175 -7 -180 -14 -4 -8 -53 -13 -133 -15 -75 -3 -132 -9 -140 -16 -8 -6 -67
-12 -148 -15 -96 -2 -136 -7 -139 -15 -2 -9 -26 -13 -70 -13 -37 0 -98 -8
-137 -16 -90 -21 -150 -31 -255 -45 -47 -5 -98 -17 -113 -25 -16 -8 -57 -14
-92 -14 -41 0 -67 -5 -74 -14 -6 -7 -39 -16 -73 -19 -35 -3 -64 -10 -66 -16
-2 -6 -25 -11 -52 -11 -30 0 -52 -5 -60 -15 -8 -9 -30 -15 -59 -15 -55 0 -71
-12 -71 -56 0 -49 16 -56 122 -50 258 14 358 24 371 34 20 17 72 21 332 26
127 3 253 10 280 15 126 27 1611 55 1660 32 17 -8 629 -27 723 -23 18 1 51 -3
75 -9 26 -8 186 -14 418 -18 295 -5 379 -9 392 -20 12 -9 61 -14 174 -17 87
-2 173 -6 191 -9 l32 -6 0 139 c0 165 14 152 -162 152 -84 0 -117 3 -120 12
-4 10 -55 14 -199 16 -108 2 -199 8 -206 14 -7 6 -77 14 -155 18 -79 4 -163
13 -188 19 -25 5 -151 10 -280 11 -175 0 -239 3 -248 13 -10 9 -134 12 -545
13 -293 1 -545 0 -562 -3z"/>
<path d="M6938 35 c-2 -3 -22 -7 -44 -9 -21 -2 -46 -6 -54 -10 -8 -3 -204 -7
-435 -9 -231 -1 206 -3 970 -3 765 0 1343 2 1285 6 -58 4 -118 12 -133 18 -21
9 -232 12 -806 12 -428 0 -780 -2 -783 -5z"/>
<path d="M11107 26 c-18 -10 -64 -16 -130 -19 -56 -1 596 -3 1448 -2 853 0
1330 1 1061 2 -371 3 -493 6 -504 16 -12 9 -220 13 -931 15 -796 2 -920 1
-944 -12z"/>
</g>
</svg>
